<svg version="1.1" id="Layer_1" xmlns="http://www.w3.org/2000/svg" x="0px" y="0px" viewBox="0 0 377.38 102.22" style="enable-background:new 0 0 377.38 102.22;" xmlns:xlink="http://www.w3.org/1999/xlink" xml:space="preserve">

<style type="text/css">

	.stfoot{fill:#FFFFFF;}

</style>

<path class="stfoot" d="M143.75,14.13c-8.78,8.08-31.49,28.37-31.49,48.92c0,8.11,6.32,16.64,16.63,16.64c10.31,0,16.63-8.78,16.63-16.64

	s-4.04-15.82-4.04-15.82c-1.31,1.3-7.6,11.05-7.6,11.05s0.94,1.83,0.79,4.79c-0.2,3.87-3.34,5.65-5.79,5.65

	c-2.85,0-5.66-2.04-5.66-5.88c0-14.58,19.74-32.6,19.74-32.6s12.72,15.02,12.72,32.81c0,14.5-11.94,26.8-26.79,26.8

	s-26.79-12.22-26.79-26.8c0-29.93,34.84-55.53,34.84-55.53c-1.61-1.66-8.05-6.55-8.05-6.55S91.13,27.53,91.13,63.05

	c0,23.12,18.88,37.76,37.76,37.76c23.23,0,37.76-20.22,37.76-37.52C166.65,35.87,143.75,14.13,143.75,14.13z"></path>

<path class="stfoot" d="M15.43,27.14c0-7.48,6.09-12.19,14.96-12.19c7.62,0,13.16,3.05,19.67,8.73l8.59-9.83C51.29,5.96,41.32,0.97,30.11,0.97

	c-15.93,0-29.22,10.25-29.22,25.9c0,31.57,47.64,25.62,47.64,45.7c0,8.17-7.34,14.13-17.59,14.13c-9.28,0-16.06-4.29-22.3-10.11

	l-9.42,9.28c6.23,7.89,17.73,14.96,31.57,14.96c17.04,0,32.55-11.08,32.55-27.84C63.34,39.75,15.43,46.95,15.43,27.14z"></path>

<polygon class="stfoot" points="323.01,2.08 307.92,2.08 307.92,99.02 369.38,99.02 369.38,85.45 323.01,85.45 "></polygon>

<path class="stfoot" d="M257.98,63.32L257.98,63.32c0,12.42-10.06,22.48-22.48,22.48c-12.42,0-22.48-10.06-22.48-22.48V2.08h-15.09v61.24

	c0,20.75,16.82,37.58,37.58,37.58s37.58-16.82,37.58-37.58V2.08h-15.09V63.32z"></path>

</svg>


